<?xml version="1.0" encoding="UTF-8"?>
<svg xmlns="http://www.w3.org/2000/svg" xmlns:xlink="http://www.w3.org/1999/xlink" width="571pt" height="557pt" viewBox="0 0 571 557" version="1.1">
<defs>
<clipPath id="clip1">
  <rect x="0" y="0" width="9" height="9"/>
</clipPath>
<g id="surface5" clip-path="url(#clip1)">
<path style=" stroke:none;fill-rule:nonzero;fill:rgb(58.039216%,58.039216%,58.039216%);fill-opacity:1;" d="M 10.5 6.75 C 10.5 7.578125 9.828125 8.25 9 8.25 C 8.171875 8.25 7.5 7.578125 7.5 6.75 C 7.5 5.921875 8.171875 5.25 9 5.25 C 9.828125 5.25 10.5 5.921875 10.5 6.75 Z M 10.5 6.75 "/>
<path style=" stroke:none;fill-rule:nonzero;fill:rgb(58.039216%,58.039216%,58.039216%);fill-opacity:1;" d="M 6 9 C 6 9.828125 5.328125 10.5 4.5 10.5 C 3.671875 10.5 3 9.828125 3 9 C 3 8.171875 3.671875 7.5 4.5 7.5 C 5.328125 7.5 6 8.171875 6 9 Z M 6 9 "/>
<path style=" stroke:none;fill-rule:nonzero;fill:rgb(58.039216%,58.039216%,58.039216%);fill-opacity:1;" d="M 1.5 6.75 C 1.5 7.578125 0.828125 8.25 0 8.25 C -0.828125 8.25 -1.5 7.578125 -1.5 6.75 C -1.5 5.921875 -0.828125 5.25 0 5.25 C 0.828125 5.25 1.5 5.921875 1.5 6.75 Z M 1.5 6.75 "/>
<path style=" stroke:none;fill-rule:nonzero;fill:rgb(58.039216%,58.039216%,58.039216%);fill-opacity:1;" d="M 10.5 2.25 C 10.5 3.078125 9.828125 3.75 9 3.75 C 8.171875 3.75 7.5 3.078125 7.5 2.25 C 7.5 1.421875 8.171875 0.75 9 0.75 C 9.828125 0.75 10.5 1.421875 10.5 2.25 Z M 10.5 2.25 "/>
<path style=" stroke:none;fill-rule:nonzero;fill:rgb(58.039216%,58.039216%,58.039216%);fill-opacity:1;" d="M 6 4.5 C 6 5.328125 5.328125 6 4.5 6 C 3.671875 6 3 5.328125 3 4.5 C 3 3.671875 3.671875 3 4.5 3 C 5.328125 3 6 3.671875 6 4.5 Z M 6 4.5 "/>
<path style=" stroke:none;fill-rule:nonzero;fill:rgb(58.039216%,58.039216%,58.039216%);fill-opacity:1;" d="M 1.5 2.25 C 1.5 3.078125 0.828125 3.75 0 3.75 C -0.828125 3.75 -1.5 3.078125 -1.5 2.25 C -1.5 1.421875 -0.828125 0.75 0 0.75 C 0.828125 0.75 1.5 1.421875 1.5 2.25 Z M 1.5 2.25 "/>
<path style=" stroke:none;fill-rule:nonzero;fill:rgb(58.039216%,58.039216%,58.039216%);fill-opacity:1;" d="M 6 0 C 6 0.828125 5.328125 1.5 4.5 1.5 C 3.671875 1.5 3 0.828125 3 0 C 3 -0.828125 3.671875 -1.5 4.5 -1.5 C 5.328125 -1.5 6 -0.828125 6 0 Z M 6 0 "/>
</g>
<pattern id="pattern0" patternUnits="userSpaceOnUse" width="9" height="9" patternTransform="matrix(-1.000412,-0.000000000000000123,0.000000000000000123,-1.000872,12.890305,931.302608)">
<use xlink:href="#surface5"/>
</pattern>
<clipPath id="clip2">
  <rect x="0" y="0" width="9" height="9"/>
</clipPath>
<g id="surface8" clip-path="url(#clip2)">
<path style=" stroke:none;fill-rule:nonzero;fill:rgb(58.039216%,58.039216%,58.039216%);fill-opacity:1;" d="M 10.5 6.75 C 10.5 7.578125 9.828125 8.25 9 8.25 C 8.171875 8.25 7.5 7.578125 7.5 6.75 C 7.5 5.921875 8.171875 5.25 9 5.25 C 9.828125 5.25 10.5 5.921875 10.5 6.75 Z M 10.5 6.75 "/>
<path style=" stroke:none;fill-rule:nonzero;fill:rgb(58.039216%,58.039216%,58.039216%);fill-opacity:1;" d="M 6 9 C 6 9.828125 5.328125 10.5 4.5 10.5 C 3.671875 10.5 3 9.828125 3 9 C 3 8.171875 3.671875 7.5 4.5 7.5 C 5.328125 7.5 6 8.171875 6 9 Z M 6 9 "/>
<path style=" stroke:none;fill-rule:nonzero;fill:rgb(58.039216%,58.039216%,58.039216%);fill-opacity:1;" d="M 1.5 6.75 C 1.5 7.578125 0.828125 8.25 0 8.25 C -0.828125 8.25 -1.5 7.578125 -1.5 6.75 C -1.5 5.921875 -0.828125 5.25 0 5.25 C 0.828125 5.25 1.5 5.921875 1.5 6.75 Z M 1.5 6.75 "/>
<path style=" stroke:none;fill-rule:nonzero;fill:rgb(58.039216%,58.039216%,58.039216%);fill-opacity:1;" d="M 10.5 2.25 C 10.5 3.078125 9.828125 3.75 9 3.75 C 8.171875 3.75 7.5 3.078125 7.5 2.25 C 7.5 1.421875 8.171875 0.75 9 0.75 C 9.828125 0.75 10.5 1.421875 10.5 2.25 Z M 10.5 2.25 "/>
<path style=" stroke:none;fill-rule:nonzero;fill:rgb(58.039216%,58.039216%,58.039216%);fill-opacity:1;" d="M 6 4.5 C 6 5.328125 5.328125 6 4.5 6 C 3.671875 6 3 5.328125 3 4.5 C 3 3.671875 3.671875 3 4.5 3 C 5.328125 3 6 3.671875 6 4.5 Z M 6 4.5 "/>
<path style=" stroke:none;fill-rule:nonzero;fill:rgb(58.039216%,58.039216%,58.039216%);fill-opacity:1;" d="M 1.5 2.25 C 1.5 3.078125 0.828125 3.75 0 3.75 C -0.828125 3.75 -1.5 3.078125 -1.5 2.25 C -1.5 1.421875 -0.828125 0.75 0 0.75 C 0.828125 0.75 1.5 1.421875 1.5 2.25 Z M 1.5 2.25 "/>
<path style=" stroke:none;fill-rule:nonzero;fill:rgb(58.039216%,58.039216%,58.039216%);fill-opacity:1;" d="M 6 0 C 6 0.828125 5.328125 1.5 4.5 1.5 C 3.671875 1.5 3 0.828125 3 0 C 3 -0.828125 3.671875 -1.5 4.5 -1.5 C 5.328125 -1.5 6 -0.828125 6 0 Z M 6 0 "/>
</g>
<pattern id="pattern1" patternUnits="userSpaceOnUse" width="9" height="9" patternTransform="matrix(-1.000412,-0.000000000000000123,0.000000000000000123,-1.000872,12.890305,931.302608)">
<use xlink:href="#surface8"/>
</pattern>
</defs>
<g id="surface1">
<path style=" stroke:none;fill-rule:nonzero;fill:rgb(94.901961%,94.901961%,94.901961%);fill-opacity:1;" d="M 319.828125 337.648438 C 324.703125 328.773438 410.539062 321.785156 434.347656 320.015625 C 426.304688 311.511719 416.339844 290.371094 409.066406 265.96875 C 403.433594 273.4375 396.847656 281.234375 393.417969 283.03125 C 381.074219 289.484375 309.898438 283.984375 306.785156 283.984375 C 303.671875 283.984375 302.695312 285.621094 299.6875 285.824219 C 283.8125 286.03125 270.027344 277.707031 269.820312 275.964844 C 269.609375 274.226562 274.417969 265.800781 276.765625 265.398438 C 277.480469 265.269531 279.601562 265.710938 282.25 266.378906 C 282.984375 266.046875 283.75 265.792969 284.539062 265.628906 C 287.757812 265.097656 295.546875 267.6875 298.046875 267.6875 C 300.542969 267.6875 309.164062 263.933594 311.550781 263.273438 C 313.9375 262.613281 359.628906 248.734375 360.75 247.261719 C 361.867188 245.789062 375.664062 229.246094 378.867188 225.441406 C 378.285156 224.628906 377.78125 223.761719 377.367188 222.851562 C 376.796875 219.097656 388.351562 198.492188 401.609375 185.886719 C 403.449219 177.789062 406.554688 170.800781 411.222656 165.492188 C 408.34375 161.945312 405.488281 158.355469 402.652344 154.722656 C 392.644531 151.109375 383.445312 141.210938 379.078125 127.78125 C 378.242188 125.203125 377.613281 122.566406 377.1875 119.890625 C 374.785156 116.4375 372.402344 112.976562 370.023438 109.539062 C 361.070312 107.453125 352.351562 103.902344 352.351562 99.382812 C 352.351562 96.261719 354.886719 93.746094 358.355469 92.582031 C 328.972656 50.066406 300.507812 12.230469 263.589844 2.609375 C 210.917969 -11.105469 141.214844 32.492188 97.539062 92.152344 C 53.863281 151.816406 36.292969 227.332031 48.605469 302.097656 C 60.917969 376.863281 102.996094 450.882812 161.316406 471.480469 C 202.679688 486.066406 252.230469 473.832031 301.828125 452.421875 C 307.625 404.734375 316.390625 343.871094 319.828125 337.648438 Z M 319.828125 337.648438 "/>
<path style=" stroke:none;fill-rule:nonzero;fill:rgb(0%,0%,0%);fill-opacity:1;" d="M 376.65625 111.550781 C 376.421875 111.265625 376.199219 110.957031 375.988281 110.640625 C 375.636719 111.605469 375.460938 112.621094 375.460938 113.644531 L 375.460938 128.65625 C 375.460938 133.277344 378.957031 137.152344 383.550781 137.621094 C 381.726562 134.496094 380.242188 131.183594 379.125 127.742188 C 377.410156 122.519531 376.574219 117.046875 376.65625 111.550781 Z M 376.65625 111.550781 "/>
<path style=" stroke:none;fill-rule:nonzero;fill:rgb(87.843137%,87.843137%,87.843137%);fill-opacity:1;" d="M 306.785156 283.953125 C 303.671875 283.953125 302.695312 285.589844 299.6875 285.792969 C 285.167969 285.980469 272.414062 279.035156 270.171875 276.523438 L 33.074219 276.523438 L 0 294.15625 L 388.703125 294.15625 L 373.316406 285.949219 C 347.875 286.910156 309.066406 283.953125 306.785156 283.953125 Z M 306.785156 283.953125 "/>
<path style=" stroke:none;fill-rule:nonzero;fill:rgb(94.901961%,94.901961%,94.901961%);fill-opacity:1;" d="M 391.527344 399.757812 L 391.527344 391.5 C 385.375 390.847656 379.410156 390.101562 374.105469 389.246094 C 375.679688 393.75 378.320312 402.082031 381.410156 412.171875 C 388.691406 408.082031 395.824219 403.914062 402.757812 399.757812 Z M 391.527344 399.757812 "/>
<path style="fill:none;stroke-width:3;stroke-linecap:round;stroke-linejoin:round;stroke:rgb(64.313725%,64.313725%,64.313725%);stroke-opacity:1;stroke-miterlimit:4;" d="M 412.189665 406.430899 L 412.189665 525.639429 " transform="matrix(0.750309,0,0,0.750654,0,0.0711247)"/>
<path style="fill:none;stroke-width:2.5;stroke-linecap:round;stroke-linejoin:round;stroke:rgb(0%,0%,0%);stroke-opacity:1;stroke-miterlimit:4;" d="M 505.00041 300.179818 C 500.720922 305.227499 482.249361 327.400868 480.848896 329.248215 C 479.448431 331.100766 418.489155 349.719944 415.282142 350.57857 C 412.069923 351.4424 400.5278 356.458858 397.279137 356.458858 C 394.030475 356.458858 383.602477 353.008742 379.281339 353.721662 C 378.224483 353.935018 377.198863 354.273264 376.2201 354.720791 " transform="matrix(0.750309,0,0,0.750654,0,0.0711247)"/>
<path style=" stroke:none;fill-rule:nonzero;fill:rgb(0%,0%,0%);fill-opacity:1;" d="M 516.585938 352.578125 C 515.597656 342.941406 509.382812 308.769531 506.339844 299.28125 C 499.511719 310.796875 444.542969 329.585938 435.417969 321.050781 C 435.066406 320.726562 434.714844 320.359375 434.355469 319.984375 C 410.539062 321.757812 324.710938 328.746094 319.835938 337.617188 C 314.160156 347.917969 294.007812 507.410156 296.574219 509.953125 C 299.140625 512.496094 309.261719 516.222656 316.128906 514.457031 C 320.269531 510.277344 357.148438 394.839844 357.898438 385.585938 C 372.519531 391.109375 423.421875 394.539062 438.796875 394.539062 C 485.359375 394.539062 518.351562 369.601562 516.585938 352.578125 Z M 516.585938 352.578125 "/>
<path style="fill:none;stroke-width:2.5;stroke-linecap:round;stroke-linejoin:round;stroke:rgb(0%,0%,0%);stroke-opacity:1;stroke-miterlimit:4;" d="M 507.587887 672.641427 L 496.972466 727.328106 " transform="matrix(0.750309,0,0,0.750654,0,0.0711247)"/>
<path style="fill:none;stroke-width:2.5;stroke-linecap:round;stroke-linejoin:round;stroke:rgb(0%,0%,0%);stroke-opacity:1;stroke-miterlimit:4;" d="M 534.800641 532.451197 L 522.998209 593.241927 " transform="matrix(0.750309,0,0,0.750654,0,0.0711247)"/>
<path style="fill:none;stroke-width:2.5;stroke-linecap:round;stroke-linejoin:round;stroke:rgb(0%,0%,0%);stroke-opacity:1;stroke-miterlimit:4;" d="M 649.961559 303.661157 L 674.211991 214.452503 L 759.770514 214.452503 L 678.632046 532.451197 L 521.82161 532.451197 L 521.82161 521.419152 " transform="matrix(0.750309,0,0,0.750654,0,0.0711247)"/>
<path style="fill:none;stroke-width:2.5;stroke-linecap:round;stroke-linejoin:round;stroke:rgb(0%,0%,0%);stroke-opacity:1;stroke-miterlimit:4;" d="M 530.687751 321.119888 C 519.327845 314.557903 506.468556 304.74875 502.969996 296.729702 C 502.209893 291.728855 517.609802 264.278838 535.27961 247.480989 " transform="matrix(0.750309,0,0,0.750654,0,0.0711247)"/>
<path style="fill:none;stroke-width:2.5;stroke-linecap:round;stroke-linejoin:round;stroke:rgb(0%,0%,0%);stroke-opacity:1;stroke-miterlimit:4;" d="M 532.431825 274.332569 C 532.650484 251.082015 537.591159 230.818438 549.778849 218.501056 " transform="matrix(0.750309,0,0,0.750654,0,0.0711247)"/>
<path style="fill:none;stroke-width:2.5;stroke-linecap:round;stroke-linejoin:round;stroke:rgb(0%,0%,0%);stroke-opacity:1;stroke-miterlimit:4;" d="M 578.782532 206.048375 C 580.188204 205.95991 581.630318 205.907872 583.119288 205.907872 C 631.208864 205.907872 677.517922 389.497751 675.617663 396.850713 C 671.728639 411.920903 592.948575 439.4802 580.307946 427.641567 C 569.312473 417.369276 555.219317 388.217618 545.171371 354.190004 " transform="matrix(0.750309,0,0,0.750654,0,0.0711247)"/>
<path style="fill:none;stroke-width:2.5;stroke-linecap:round;stroke-linejoin:round;stroke:rgb(0%,0%,0%);stroke-opacity:1;stroke-miterlimit:4;" d="M 669.588895 532.451197 L 707.422276 727.328106 " transform="matrix(0.750309,0,0,0.750654,0,0.0711247)"/>
<path style="fill:none;stroke-width:2.5;stroke-linecap:round;stroke-linejoin:round;stroke:rgb(0%,0%,0%);stroke-opacity:1;stroke-miterlimit:4;" d="M 417.791525 685.879881 L 402.16775 740.582171 L 334.419602 710.389754 L 391.271194 698.561529 L 396.357642 681.029944 " transform="matrix(0.750309,0,0,0.750654,0,0.0711247)"/>
<path style="fill:none;stroke-width:2.5;stroke-linecap:round;stroke-linejoin:round;stroke:rgb(0%,0%,0%);stroke-opacity:1;stroke-miterlimit:4;" d="M 534.821466 658.757703 L 558.400299 710.530257 L 487.252509 731.480734 L 522.857641 685.598876 L 515.360728 668.962344 " transform="matrix(0.750309,0,0,0.750654,0,0.0711247)"/>
<path style="fill:none;stroke-width:2.5;stroke-linecap:round;stroke-linejoin:round;stroke:rgb(0%,0%,0%);stroke-opacity:1;stroke-miterlimit:4;" d="M 551.429211 230.620694 C 550.757613 224.230434 549.190549 212.620768 547.149723 207.94776 " transform="matrix(0.750309,0,0,0.750654,0,0.0711247)"/>
<path style="fill:none;stroke-width:2.5;stroke-linecap:round;stroke-linejoin:round;stroke:rgb(0%,0%,0%);stroke-opacity:1;stroke-miterlimit:4;" d="M 573.399332 191.842015 C 575.939953 199.730968 580.490163 210.908719 582.760061 213.458579 C 584.530166 215.46204 579.589492 223.158452 571.53031 228.362247 " transform="matrix(0.750309,0,0,0.750654,0,0.0711247)"/>
<path style="fill:none;stroke-width:2.5;stroke-linecap:round;stroke-linejoin:round;stroke:rgb(0%,0%,0%);stroke-opacity:1;stroke-miterlimit:4;" d="M 576.621964 184.509868 C 573.040105 195.20887 565.970099 203.410051 556.250143 206.579162 C 536.732137 212.938199 513.897789 196.577468 505.250308 170.079746 C 502.845048 162.794433 501.736129 155.144855 501.98082 147.479665 " transform="matrix(0.750309,0,0,0.750654,0,0.0711247)"/>
<path style="fill:none;stroke-width:2.5;stroke-linecap:round;stroke-linejoin:round;stroke:rgb(0%,0%,0%);stroke-opacity:1;stroke-miterlimit:4;" d="M 548.581425 155.170874 C 547.066424 155.436267 545.530598 155.566362 543.989566 155.550751 C 540.142192 155.550751 532.910794 150.961004 532.910794 145.68956 C 524.742282 145.830062 524.742282 148.530831 513.528149 148.530831 C 500.830252 148.530831 469.629557 142.109349 469.629557 132.248158 C 469.629557 125.571689 478.339513 120.971534 486.919313 122.600322 C 481.109205 119.488453 475.918634 113.072174 475.918634 108.820674 C 475.918634 102.867533 483.420754 98.761738 489.230862 98.761738 C 496.118651 98.761738 502.058913 101.660252 505.031648 104.501524 C 502.668037 100.380119 504.958761 89.639486 510.638714 89.639486 C 530.557596 89.639486 581.75006 125.030494 581.75006 160.640062 C 581.75006 179.748396 578.371243 184.639963 577.090521 184.639963 C 575.809798 184.639963 564.559222 175.907996 563.517984 169.127451 " transform="matrix(0.750309,0,0,0.750654,0,0.0711247)"/>
<path style="fill:none;stroke-width:2.5;stroke-linecap:round;stroke-linejoin:round;stroke:rgb(0%,0%,0%);stroke-opacity:1;stroke-miterlimit:4;" d="M 546.847764 159.427578 C 547.706785 154.213375 552.361119 150.482254 557.640196 150.784075 C 562.914066 151.091098 567.110255 155.332191 567.360152 160.608839 C 567.615255 165.890691 563.835561 170.506457 558.608547 171.307841 " transform="matrix(0.750309,0,0,0.750654,0,0.0711247)"/>
<path style=" stroke:none;fill-rule:nonzero;fill:rgb(64.313725%,64.313725%,64.313725%);fill-opacity:1;" d="M 0 294.253906 L 389.117188 294.253906 L 389.117188 305.167969 L 0 305.167969 Z M 0 294.253906 "/>
<path style="fill:none;stroke-width:3;stroke-linecap:round;stroke-linejoin:round;stroke:rgb(64.313725%,64.313725%,64.313725%);stroke-opacity:1;stroke-miterlimit:4;" d="M 65.311651 406.430899 L 65.311651 711.388883 " transform="matrix(0.750309,0,0,0.750654,0,0.0711247)"/>
<path style="fill:none;stroke-width:3;stroke-linecap:round;stroke-linejoin:round;stroke:rgb(64.313725%,64.313725%,64.313725%);stroke-opacity:1;stroke-miterlimit:4;" d="M 106.409313 406.430899 L 106.409313 656.468033 " transform="matrix(0.750309,0,0,0.750654,0,0.0711247)"/>
<path style="fill:none;stroke-width:3;stroke-linecap:round;stroke-linejoin:round;stroke:rgb(64.313725%,64.313725%,64.313725%);stroke-opacity:1;stroke-miterlimit:4;" d="M 453.29774 406.430899 L 453.29774 711.388883 " transform="matrix(0.750309,0,0,0.750654,0,0.0711247)"/>
<path style=" stroke:none;fill-rule:nonzero;fill:rgb(64.313725%,64.313725%,64.313725%);fill-opacity:1;" d="M 143.152344 271.859375 L 156.355469 271.859375 L 156.355469 287.585938 L 143.152344 287.585938 Z M 143.152344 271.859375 "/>
<path style=" stroke:none;fill-rule:nonzero;fill:rgb(87.843137%,87.843137%,87.843137%);fill-opacity:1;" d="M 131.957031 76.699219 L 138.28125 76.699219 L 138.28125 280.402344 L 131.957031 280.402344 Z M 131.957031 76.699219 "/>
<path style=" stroke:none;fill-rule:nonzero;fill:url(#pattern0);" d="M 138.273438 76.699219 L 138.273438 280.402344 L 168.183594 269.457031 L 168.183594 87.636719 Z M 138.273438 76.699219 "/>
<path style=" stroke:none;fill-rule:nonzero;fill:rgb(64.313725%,64.313725%,64.313725%);fill-opacity:1;" d="M 271.613281 277.746094 L 229.480469 277.746094 L 229.480469 282.480469 L 281.148438 282.480469 C 277.78125 281.3125 274.578125 279.722656 271.613281 277.746094 Z M 271.613281 277.746094 "/>
<path style=" stroke:none;fill-rule:nonzero;fill:url(#pattern1);" d="M 272.902344 278.5625 C 268.265625 279.808594 265.136719 282.144531 265.136719 284.832031 C 265.136719 288.824219 272.0625 292.066406 280.609375 292.066406 C 288.554688 292.066406 295.097656 289.261719 295.972656 285.65625 C 287.847656 285.070312 279.957031 282.644531 272.902344 278.5625 Z M 272.902344 278.5625 "/>
<path style="fill:none;stroke-width:2.5;stroke-linecap:round;stroke-linejoin:round;stroke:rgb(0%,0%,0%);stroke-opacity:1;stroke-miterlimit:4;" d="M 519.312226 310.597815 C 514.53815 316.59779 498.74257 339.338373 496.920404 341.919456 C 454.922071 346.82143 399.418881 360.288851 397.378055 360.361704 C 395.342435 360.429354 371.99788 352.86824 368.86896 353.419842 C 365.74004 353.971444 359.341632 365.190826 359.612354 367.501311 C 359.87787 369.811796 378.260926 380.91149 399.418881 380.630485 C 403.422441 380.359887 404.729195 378.179497 408.878528 378.179497 C 413.027861 378.179497 507.879433 385.522052 524.341406 376.909772 C 532.280845 372.75194 552.980656 344.422481 557.541278 336.252523 " transform="matrix(0.750309,0,0,0.750654,0,0.0711247)"/>
<path style="fill:none;stroke-width:2.5;stroke-linecap:round;stroke-linejoin:round;stroke:rgb(0%,0%,0%);stroke-opacity:1;stroke-miterlimit:4;" d="M 538.169046 326.339294 C 528.428265 320.058314 518.859288 312.039266 515.912584 305.341982 C 514.68913 297.338546 555.552513 230.610286 580.130935 244.962352 C 608.889928 261.749794 565.881594 335.092077 560.441126 336.960239 C 556.270968 336.48149 547.149723 332.162341 538.169046 326.370517 " transform="matrix(0.750309,0,0,0.750654,0,0.0711247)"/>
<path style=" stroke:none;fill-rule:nonzero;fill:rgb(0%,0%,0%);fill-opacity:1;" d="M 374.105469 389.246094 L 371.238281 382.152344 L 363.824219 373.402344 L 349.988281 390.898438 L 342.019531 420.683594 L 342.679688 436.171875 L 343.289062 436.171875 C 345.488281 440.960938 371.214844 497.671875 379.167969 503.957031 C 385.660156 503.421875 400.851562 495.238281 404.355469 491.5625 C 403.710938 486.628906 380.40625 407.136719 374.105469 389.246094 Z M 374.105469 389.246094 "/>
<path style=" stroke:none;fill-rule:nonzero;fill:rgb(0%,0%,0%);fill-opacity:1;" d="M 413.332031 104.621094 L 418.808594 104.621094 C 423.78125 104.621094 427.8125 108.65625 427.8125 113.628906 L 427.8125 128.65625 C 427.8125 133.632812 423.78125 137.667969 418.808594 137.667969 L 413.332031 137.667969 C 408.359375 137.667969 404.328125 133.632812 404.328125 128.65625 L 404.328125 113.628906 C 404.328125 108.65625 408.359375 104.621094 413.332031 104.621094 Z M 413.332031 104.621094 "/>
<path style="fill:none;stroke-width:5;stroke-linecap:round;stroke-linejoin:round;stroke:rgb(0%,0%,0%);stroke-opacity:1;stroke-miterlimit:4;" d="M 555.328647 144.830933 C 555.328647 139.278484 557.249731 106.588246 538.882294 96.94041 " transform="matrix(0.750309,0,0,0.750654,0,0.0711247)"/>
<path style="fill:none;stroke-width:5;stroke-linecap:round;stroke-linejoin:round;stroke:rgb(0%,0%,0%);stroke-opacity:1;stroke-miterlimit:4;" d="M 557.530866 179.30087 C 557.530866 182.490796 556.270968 200.579187 542.531833 200.579187 " transform="matrix(0.750309,0,0,0.750654,0,0.0711247)"/>
</g>
</svg>
